<?xml version="1.0" standalone="no"?>
<!DOCTYPE svg PUBLIC "-//W3C//DTD SVG 20010904//EN"
 "http://www.w3.org/TR/2001/REC-SVG-20010904/DTD/svg10.dtd">
<svg version="1.0" xmlns="http://www.w3.org/2000/svg"
 width="512.000000pt" height="512.000000pt" viewBox="0 0 512.000000 512.000000"
 preserveAspectRatio="xMidYMid meet">
<metadata>
Created by potrace 1.14, written by Peter Selinger 2001-2017
</metadata>
<g transform="translate(0.000000,512.000000) scale(0.100000,-0.100000)"
fill="#000000" stroke="none">
<path d="M1650 4791 c-27 -26 -31 -36 -25 -64 8 -36 18 -47 231 -260 l152
-150 -63 -76 c-144 -175 -228 -347 -236 -487 -3 -41 -9 -53 -59 -103 -84 -85
-176 -231 -240 -379 l-27 -63 -139 111 c-76 62 -151 121 -166 133 -106 87 -91
82 -217 87 -64 3 -178 3 -254 0 -131 -5 -140 -6 -158 -29 -21 -26 -25 -78 -6
-102 27 -35 53 -39 262 -39 l206 0 202 -162 c111 -89 203 -162 205 -163 2 -2
-8 -43 -22 -91 -37 -133 -71 -320 -81 -441 -14 -169 -13 -165 -43 -170 -9 -1
-96 -20 -192 -42 -96 -22 -186 -42 -200 -45 -14 -2 -111 -24 -215 -47 l-191
-42 -184 -276 c-156 -234 -184 -282 -184 -313 -1 -50 29 -80 78 -80 20 0 43 6
52 12 8 7 89 125 181 261 118 177 171 249 184 249 25 0 30 1 57 11 13 5 37 11
55 14 18 3 40 8 49 11 9 3 27 7 40 9 13 3 52 11 88 19 97 22 263 59 277 62 6
1 34 7 63 13 69 15 67 16 67 -26 -1 -51 10 -149 24 -214 21 -105 83 -304 101
-323 4 -6 8 -16 8 -23 0 -18 76 -175 127 -262 24 -41 40 -77 36 -81 -4 -4 -84
-40 -178 -80 -93 -39 -179 -76 -190 -81 -11 -5 -72 -31 -135 -58 -63 -27 -118
-55 -122 -63 -20 -34 -180 -537 -181 -567 -2 -68 88 -107 137 -58 15 15 48
101 100 258 43 130 81 240 84 245 4 6 139 67 300 136 l293 125 27 -36 c120
-162 409 -462 504 -524 174 -114 382 -161 592 -133 119 15 287 83 376 152 120
93 399 390 490 521 15 22 16 22 265 -103 137 -69 253 -131 257 -138 4 -7 42
-117 84 -244 82 -248 100 -282 153 -282 36 0 79 35 85 70 2 15 -34 140 -89
305 l-93 280 -276 138 -275 138 23 37 c110 175 238 496 261 655 3 27 9 59 11
70 3 12 8 56 11 97 3 41 7 77 8 78 2 2 143 -31 314 -74 l311 -78 163 -245 c91
-136 171 -251 178 -258 8 -6 29 -13 47 -16 48 -8 87 28 86 79 0 34 -25 77
-184 314 l-185 275 -70 18 c-38 10 -77 20 -85 22 -8 2 -44 11 -80 20 -109 27
-224 55 -250 61 -14 2 -39 9 -56 15 -17 5 -40 11 -50 13 -41 9 -120 27 -135
32 -9 2 -16 10 -16 17 -1 75 -33 331 -53 420 -5 23 -11 53 -13 67 -3 14 -15
59 -26 100 -12 41 -21 80 -21 86 0 6 51 51 112 100 62 49 122 97 133 106 11 9
51 41 90 72 l69 55 218 3 c204 3 219 4 238 23 31 32 33 80 5 113 l-23 27 -238
5 c-175 4 -244 2 -261 -7 -13 -7 -92 -67 -176 -135 -84 -67 -156 -126 -162
-130 -5 -4 -23 -18 -40 -32 l-29 -24 -61 122 c-83 165 -203 338 -244 351 -14
4 -20 20 -25 73 -4 37 -14 90 -22 117 -31 108 -129 272 -230 383 -24 28 -44
52 -44 54 0 2 86 89 190 194 179 179 190 192 190 227 0 48 -36 87 -80 87 -36
0 -55 -17 -273 -237 l-150 -151 -31 23 c-52 40 -157 84 -241 101 -173 36 -435
-1 -602 -84 l-75 -37 -187 188 c-159 160 -192 188 -223 193 -32 6 -41 2 -68
-25z"/>
</g>
</svg>
